<mxfile host="app.diagrams.net" modified="2023-04-16T06:45:19.681Z" agent="Mozilla/5.0 (Windows NT 10.0; Win64; x64) AppleWebKit/537.36 (KHTML, like Gecko) Chrome/112.0.0.0 Safari/537.36" etag="-DJAQ1v7nMaWxRiC95gh" version="21.1.8" type="device">
  <diagram name="Halaman-1" id="LtVwaV6glFx6A3acJF6a">
    <mxGraphModel dx="461" dy="607" grid="1" gridSize="10" guides="1" tooltips="1" connect="1" arrows="1" fold="1" page="1" pageScale="1" pageWidth="827" pageHeight="1169" math="0" shadow="0">
      <root>
        <mxCell id="0" />
        <mxCell id="1" parent="0" />
        <mxCell id="Yj5tEXeOZ-BM_-UV5_yF-3" value="" style="edgeStyle=orthogonalEdgeStyle;rounded=0;orthogonalLoop=1;jettySize=auto;html=1;" parent="1" source="Yj5tEXeOZ-BM_-UV5_yF-1" target="Yj5tEXeOZ-BM_-UV5_yF-2" edge="1">
          <mxGeometry relative="1" as="geometry" />
        </mxCell>
        <mxCell id="Yj5tEXeOZ-BM_-UV5_yF-1" value="Bangun Ruang" style="rounded=0;whiteSpace=wrap;html=1;" parent="1" vertex="1">
          <mxGeometry x="150" y="40" width="120" height="30" as="geometry" />
        </mxCell>
        <mxCell id="Yj5tEXeOZ-BM_-UV5_yF-5" value="" style="edgeStyle=orthogonalEdgeStyle;rounded=0;orthogonalLoop=1;jettySize=auto;html=1;" parent="1" source="Yj5tEXeOZ-BM_-UV5_yF-2" target="Yj5tEXeOZ-BM_-UV5_yF-4" edge="1">
          <mxGeometry relative="1" as="geometry" />
        </mxCell>
        <mxCell id="Yj5tEXeOZ-BM_-UV5_yF-2" value="double =&lt;br&gt;+ pi&lt;br&gt;+ panjang&lt;br&gt;+ lebar&lt;br&gt;+ alas&lt;br&gt;+ tinggi&lt;br&gt;+ jari jari" style="rounded=0;whiteSpace=wrap;html=1;" parent="1" vertex="1">
          <mxGeometry x="150" y="70" width="120" height="120" as="geometry" />
        </mxCell>
        <mxCell id="Yj5tEXeOZ-BM_-UV5_yF-4" value="+ Luas() : void&lt;br&gt;+ Volume() : void" style="whiteSpace=wrap;html=1;rounded=0;" parent="1" vertex="1">
          <mxGeometry x="150" y="190" width="120" height="30" as="geometry" />
        </mxCell>
        <mxCell id="JAWCg2pvb01ycaRwd2CQ-4" value="" style="edgeStyle=none;curved=1;rounded=0;orthogonalLoop=1;jettySize=auto;html=1;fontSize=12;startSize=8;endSize=8;" edge="1" parent="1" source="JAWCg2pvb01ycaRwd2CQ-1" target="JAWCg2pvb01ycaRwd2CQ-3">
          <mxGeometry relative="1" as="geometry" />
        </mxCell>
        <mxCell id="JAWCg2pvb01ycaRwd2CQ-10" value="" style="edgeStyle=none;curved=1;rounded=0;orthogonalLoop=1;jettySize=auto;html=1;fontSize=12;startSize=8;endSize=8;entryX=0;entryY=0.5;entryDx=0;entryDy=0;" edge="1" parent="1" source="JAWCg2pvb01ycaRwd2CQ-1" target="Yj5tEXeOZ-BM_-UV5_yF-4">
          <mxGeometry relative="1" as="geometry" />
        </mxCell>
        <mxCell id="JAWCg2pvb01ycaRwd2CQ-1" value="Balok" style="whiteSpace=wrap;html=1;rounded=0;fontSize=16;" vertex="1" parent="1">
          <mxGeometry y="195" width="130" height="20" as="geometry" />
        </mxCell>
        <mxCell id="JAWCg2pvb01ycaRwd2CQ-3" value="+ Luas () : void&lt;br&gt;+ Volume () : void" style="whiteSpace=wrap;html=1;rounded=0;fontSize=16;" vertex="1" parent="1">
          <mxGeometry y="215" width="130" height="50" as="geometry" />
        </mxCell>
        <mxCell id="JAWCg2pvb01ycaRwd2CQ-9" value="" style="edgeStyle=none;curved=1;rounded=0;orthogonalLoop=1;jettySize=auto;html=1;fontSize=12;startSize=8;endSize=8;" edge="1" parent="1" source="JAWCg2pvb01ycaRwd2CQ-6" target="JAWCg2pvb01ycaRwd2CQ-8">
          <mxGeometry relative="1" as="geometry" />
        </mxCell>
        <mxCell id="JAWCg2pvb01ycaRwd2CQ-12" style="edgeStyle=none;curved=1;rounded=0;orthogonalLoop=1;jettySize=auto;html=1;exitX=0.5;exitY=0;exitDx=0;exitDy=0;entryX=0.5;entryY=1;entryDx=0;entryDy=0;fontSize=12;startSize=8;endSize=8;" edge="1" parent="1" source="JAWCg2pvb01ycaRwd2CQ-6" target="Yj5tEXeOZ-BM_-UV5_yF-4">
          <mxGeometry relative="1" as="geometry" />
        </mxCell>
        <mxCell id="JAWCg2pvb01ycaRwd2CQ-6" value="Kubus" style="whiteSpace=wrap;html=1;rounded=0;fontSize=16;" vertex="1" parent="1">
          <mxGeometry x="80" y="270" width="130" height="30" as="geometry" />
        </mxCell>
        <mxCell id="JAWCg2pvb01ycaRwd2CQ-8" value="+ Luas () : void&lt;br&gt;+ Volume () : void" style="whiteSpace=wrap;html=1;fontSize=16;rounded=0;" vertex="1" parent="1">
          <mxGeometry x="80" y="300" width="130" height="40" as="geometry" />
        </mxCell>
        <mxCell id="JAWCg2pvb01ycaRwd2CQ-15" style="edgeStyle=none;curved=1;rounded=0;orthogonalLoop=1;jettySize=auto;html=1;entryX=0.5;entryY=1;entryDx=0;entryDy=0;fontSize=12;startSize=8;endSize=8;" edge="1" parent="1" source="JAWCg2pvb01ycaRwd2CQ-13" target="Yj5tEXeOZ-BM_-UV5_yF-4">
          <mxGeometry relative="1" as="geometry" />
        </mxCell>
        <mxCell id="JAWCg2pvb01ycaRwd2CQ-13" value="Bola" style="whiteSpace=wrap;html=1;rounded=0;fontSize=16;" vertex="1" parent="1">
          <mxGeometry x="220" y="270" width="130" height="30" as="geometry" />
        </mxCell>
        <mxCell id="JAWCg2pvb01ycaRwd2CQ-14" value="+ Luas () : void&lt;br&gt;+ Volume () : void" style="whiteSpace=wrap;html=1;fontSize=16;rounded=0;" vertex="1" parent="1">
          <mxGeometry x="220" y="300" width="130" height="40" as="geometry" />
        </mxCell>
        <mxCell id="JAWCg2pvb01ycaRwd2CQ-18" style="edgeStyle=none;curved=1;rounded=0;orthogonalLoop=1;jettySize=auto;html=1;entryX=1;entryY=0.5;entryDx=0;entryDy=0;fontSize=12;startSize=8;endSize=8;" edge="1" parent="1" target="Yj5tEXeOZ-BM_-UV5_yF-4">
          <mxGeometry relative="1" as="geometry">
            <mxPoint x="290" y="205" as="sourcePoint" />
          </mxGeometry>
        </mxCell>
        <mxCell id="JAWCg2pvb01ycaRwd2CQ-16" value="Tabung" style="whiteSpace=wrap;html=1;rounded=0;fontSize=16;" vertex="1" parent="1">
          <mxGeometry x="290" y="195" width="130" height="30" as="geometry" />
        </mxCell>
        <mxCell id="JAWCg2pvb01ycaRwd2CQ-17" value="+ Luas () : void&lt;br&gt;+ Volume () : void" style="whiteSpace=wrap;html=1;fontSize=16;rounded=0;" vertex="1" parent="1">
          <mxGeometry x="290" y="225" width="130" height="40" as="geometry" />
        </mxCell>
        <mxCell id="JAWCg2pvb01ycaRwd2CQ-19" value="Bangun Datar" style="rounded=0;whiteSpace=wrap;html=1;" vertex="1" parent="1">
          <mxGeometry x="590" y="40" width="120" height="30" as="geometry" />
        </mxCell>
        <mxCell id="JAWCg2pvb01ycaRwd2CQ-21" value="+ Luas() : void&lt;br&gt;+ Keliling() : void" style="whiteSpace=wrap;html=1;rounded=0;" vertex="1" parent="1">
          <mxGeometry x="590" y="190" width="120" height="30" as="geometry" />
        </mxCell>
        <mxCell id="JAWCg2pvb01ycaRwd2CQ-22" value="double =&lt;br&gt;+ pi&lt;br&gt;+ panjang&lt;br&gt;+ lebar&lt;br&gt;+ alas&lt;br&gt;+ tinggi&lt;br&gt;+ jari jari" style="rounded=0;whiteSpace=wrap;html=1;" vertex="1" parent="1">
          <mxGeometry x="590" y="70" width="120" height="120" as="geometry" />
        </mxCell>
        <mxCell id="JAWCg2pvb01ycaRwd2CQ-33" style="edgeStyle=none;curved=1;rounded=0;orthogonalLoop=1;jettySize=auto;html=1;fontSize=12;startSize=8;endSize=8;entryX=0;entryY=0.5;entryDx=0;entryDy=0;" edge="1" parent="1" target="JAWCg2pvb01ycaRwd2CQ-21">
          <mxGeometry relative="1" as="geometry">
            <mxPoint x="570" y="205" as="sourcePoint" />
            <mxPoint x="590" y="200" as="targetPoint" />
          </mxGeometry>
        </mxCell>
        <mxCell id="JAWCg2pvb01ycaRwd2CQ-23" value="Persergi" style="whiteSpace=wrap;html=1;rounded=0;fontSize=16;" vertex="1" parent="1">
          <mxGeometry x="440" y="195" width="130" height="30" as="geometry" />
        </mxCell>
        <mxCell id="JAWCg2pvb01ycaRwd2CQ-37" style="edgeStyle=none;curved=1;rounded=0;orthogonalLoop=1;jettySize=auto;html=1;exitX=0;exitY=0.25;exitDx=0;exitDy=0;fontSize=12;startSize=8;endSize=8;" edge="1" parent="1" source="JAWCg2pvb01ycaRwd2CQ-24" target="JAWCg2pvb01ycaRwd2CQ-21">
          <mxGeometry relative="1" as="geometry" />
        </mxCell>
        <mxCell id="JAWCg2pvb01ycaRwd2CQ-24" value="PersegiPanjang" style="whiteSpace=wrap;html=1;rounded=0;fontSize=16;" vertex="1" parent="1">
          <mxGeometry x="730" y="195" width="130" height="30" as="geometry" />
        </mxCell>
        <mxCell id="JAWCg2pvb01ycaRwd2CQ-34" style="edgeStyle=none;curved=1;rounded=0;orthogonalLoop=1;jettySize=auto;html=1;exitX=1;exitY=0;exitDx=0;exitDy=0;entryX=0.5;entryY=1;entryDx=0;entryDy=0;fontSize=12;startSize=8;endSize=8;" edge="1" parent="1" source="JAWCg2pvb01ycaRwd2CQ-25" target="JAWCg2pvb01ycaRwd2CQ-21">
          <mxGeometry relative="1" as="geometry" />
        </mxCell>
        <mxCell id="JAWCg2pvb01ycaRwd2CQ-25" value="Trapesium" style="whiteSpace=wrap;html=1;rounded=0;fontSize=16;" vertex="1" parent="1">
          <mxGeometry x="440" y="270" width="130" height="30" as="geometry" />
        </mxCell>
        <mxCell id="JAWCg2pvb01ycaRwd2CQ-35" style="edgeStyle=none;curved=1;rounded=0;orthogonalLoop=1;jettySize=auto;html=1;exitX=0.5;exitY=0;exitDx=0;exitDy=0;fontSize=12;startSize=8;endSize=8;" edge="1" parent="1" source="JAWCg2pvb01ycaRwd2CQ-26">
          <mxGeometry relative="1" as="geometry">
            <mxPoint x="650" y="219.9999999999999" as="targetPoint" />
          </mxGeometry>
        </mxCell>
        <mxCell id="JAWCg2pvb01ycaRwd2CQ-26" value="Segitiga" style="whiteSpace=wrap;html=1;rounded=0;fontSize=16;" vertex="1" parent="1">
          <mxGeometry x="585" y="270" width="130" height="30" as="geometry" />
        </mxCell>
        <mxCell id="JAWCg2pvb01ycaRwd2CQ-36" style="edgeStyle=none;curved=1;rounded=0;orthogonalLoop=1;jettySize=auto;html=1;exitX=0;exitY=0;exitDx=0;exitDy=0;entryX=0.5;entryY=1;entryDx=0;entryDy=0;fontSize=12;startSize=8;endSize=8;" edge="1" parent="1" source="JAWCg2pvb01ycaRwd2CQ-27" target="JAWCg2pvb01ycaRwd2CQ-21">
          <mxGeometry relative="1" as="geometry" />
        </mxCell>
        <mxCell id="JAWCg2pvb01ycaRwd2CQ-27" value="Lingkaran" style="whiteSpace=wrap;html=1;rounded=0;fontSize=16;" vertex="1" parent="1">
          <mxGeometry x="730" y="270" width="130" height="30" as="geometry" />
        </mxCell>
        <mxCell id="JAWCg2pvb01ycaRwd2CQ-28" value="+ Luas () : void&lt;br&gt;+ Keliling () : void" style="whiteSpace=wrap;html=1;fontSize=16;rounded=0;" vertex="1" parent="1">
          <mxGeometry x="440" y="225" width="130" height="40" as="geometry" />
        </mxCell>
        <mxCell id="JAWCg2pvb01ycaRwd2CQ-29" value="+ Luas () : void&lt;br&gt;+ Keliling () : void" style="whiteSpace=wrap;html=1;fontSize=16;rounded=0;" vertex="1" parent="1">
          <mxGeometry x="440" y="300" width="130" height="40" as="geometry" />
        </mxCell>
        <mxCell id="JAWCg2pvb01ycaRwd2CQ-30" value="+ Luas () : void&lt;br&gt;+ Keliling () : void" style="whiteSpace=wrap;html=1;fontSize=16;rounded=0;" vertex="1" parent="1">
          <mxGeometry x="585" y="300" width="130" height="40" as="geometry" />
        </mxCell>
        <mxCell id="JAWCg2pvb01ycaRwd2CQ-31" value="+ Luas () : void&lt;br&gt;+ Keliling () : void" style="whiteSpace=wrap;html=1;fontSize=16;rounded=0;" vertex="1" parent="1">
          <mxGeometry x="730" y="300" width="130" height="40" as="geometry" />
        </mxCell>
        <mxCell id="JAWCg2pvb01ycaRwd2CQ-32" value="+ Luas () : void&lt;br&gt;+ Keliling () : void" style="whiteSpace=wrap;html=1;fontSize=16;rounded=0;" vertex="1" parent="1">
          <mxGeometry x="730" y="225" width="130" height="40" as="geometry" />
        </mxCell>
        <mxCell id="JAWCg2pvb01ycaRwd2CQ-38" value="SistemInformasi" style="rounded=0;whiteSpace=wrap;html=1;fontSize=16;" vertex="1" parent="1">
          <mxGeometry x="338" y="420" width="152" height="20" as="geometry" />
        </mxCell>
        <mxCell id="JAWCg2pvb01ycaRwd2CQ-39" value="+ String = nama&lt;br&gt;+ int = umur&lt;br&gt;+ String = jabatan" style="rounded=0;whiteSpace=wrap;html=1;fontSize=16;" vertex="1" parent="1">
          <mxGeometry x="338" y="440" width="152" height="80" as="geometry" />
        </mxCell>
        <mxCell id="JAWCg2pvb01ycaRwd2CQ-40" value="+ berbicara () : void" style="rounded=0;whiteSpace=wrap;html=1;fontSize=16;" vertex="1" parent="1">
          <mxGeometry x="338" y="520" width="152" height="30" as="geometry" />
        </mxCell>
        <mxCell id="JAWCg2pvb01ycaRwd2CQ-47" style="edgeStyle=none;curved=1;rounded=0;orthogonalLoop=1;jettySize=auto;html=1;exitX=0.5;exitY=0;exitDx=0;exitDy=0;entryX=0.5;entryY=1;entryDx=0;entryDy=0;fontSize=12;startSize=8;endSize=8;" edge="1" parent="1" source="JAWCg2pvb01ycaRwd2CQ-41" target="JAWCg2pvb01ycaRwd2CQ-40">
          <mxGeometry relative="1" as="geometry" />
        </mxCell>
        <mxCell id="JAWCg2pvb01ycaRwd2CQ-41" value="PengurusInti" style="rounded=0;whiteSpace=wrap;html=1;fontSize=16;" vertex="1" parent="1">
          <mxGeometry x="115" y="574" width="190" height="20" as="geometry" />
        </mxCell>
        <mxCell id="JAWCg2pvb01ycaRwd2CQ-42" value="+ mengaturRapat () : void" style="rounded=0;whiteSpace=wrap;html=1;fontSize=16;" vertex="1" parent="1">
          <mxGeometry x="115" y="594" width="190" height="30" as="geometry" />
        </mxCell>
        <mxCell id="JAWCg2pvb01ycaRwd2CQ-48" style="edgeStyle=none;curved=1;rounded=0;orthogonalLoop=1;jettySize=auto;html=1;exitX=0.5;exitY=0;exitDx=0;exitDy=0;fontSize=12;startSize=8;endSize=8;" edge="1" parent="1" source="JAWCg2pvb01ycaRwd2CQ-43">
          <mxGeometry relative="1" as="geometry">
            <mxPoint x="414.2941176470589" y="550" as="targetPoint" />
          </mxGeometry>
        </mxCell>
        <mxCell id="JAWCg2pvb01ycaRwd2CQ-43" value="KoordinatorBidang" style="rounded=0;whiteSpace=wrap;html=1;fontSize=16;" vertex="1" parent="1">
          <mxGeometry x="319" y="574" width="190" height="20" as="geometry" />
        </mxCell>
        <mxCell id="JAWCg2pvb01ycaRwd2CQ-44" value="+ mengaturTugas () : void" style="rounded=0;whiteSpace=wrap;html=1;fontSize=16;" vertex="1" parent="1">
          <mxGeometry x="319" y="594" width="190" height="30" as="geometry" />
        </mxCell>
        <mxCell id="JAWCg2pvb01ycaRwd2CQ-45" value="+ melaksanakanTugas () : void" style="rounded=0;whiteSpace=wrap;html=1;fontSize=16;" vertex="1" parent="1">
          <mxGeometry x="525" y="594" width="225" height="30" as="geometry" />
        </mxCell>
        <mxCell id="JAWCg2pvb01ycaRwd2CQ-50" style="edgeStyle=none;curved=1;rounded=0;orthogonalLoop=1;jettySize=auto;html=1;exitX=0.5;exitY=0;exitDx=0;exitDy=0;entryX=0.5;entryY=1;entryDx=0;entryDy=0;fontSize=12;startSize=8;endSize=8;" edge="1" parent="1" source="JAWCg2pvb01ycaRwd2CQ-46" target="JAWCg2pvb01ycaRwd2CQ-40">
          <mxGeometry relative="1" as="geometry" />
        </mxCell>
        <mxCell id="JAWCg2pvb01ycaRwd2CQ-46" value="Staff" style="rounded=0;whiteSpace=wrap;html=1;fontSize=16;" vertex="1" parent="1">
          <mxGeometry x="525" y="574" width="225" height="20" as="geometry" />
        </mxCell>
      </root>
    </mxGraphModel>
  </diagram>
</mxfile>
